<svg width="33" height="32" viewBox="0 0 33 32" fill="none" xmlns="http://www.w3.org/2000/svg">
<g clip-path="url(#clip0_11_17)">
<path d="M7.60596 11.3177L13.747 3.50214C14.9482 1.97349 17.2637 1.97349 18.4649 3.50214L24.606 11.3177" stroke="black" stroke-width="2"/>
<path d="M1.92792 14.9243C1.6109 13.0904 3.02294 11.4133 4.88408 11.4133H26.7486C28.6098 11.4133 30.0218 13.0904 29.7048 14.9243L27.6155 27.011C27.3668 28.4494 26.119 29.5 24.6593 29.5H6.97344C5.51375 29.5 4.26592 28.4494 4.01728 27.011L1.92792 14.9243Z" stroke="black" stroke-width="2"/>
<line x1="9.60596" y1="17.2848" x2="9.60596" y2="24.5556" stroke="black" stroke-width="2" stroke-linecap="round"/>
<line x1="15.606" y1="17.2848" x2="15.606" y2="24.5556" stroke="black" stroke-width="2" stroke-linecap="round"/>
<line x1="21.606" y1="17.2848" x2="21.606" y2="24.5556" stroke="black" stroke-width="2" stroke-linecap="round"/>
</g>
<defs>
<clipPath id="clip0_11_17">
<rect width="32" height="32" fill="white" transform="translate(0.133301)"/>
</clipPath>
</defs>
</svg>
