<svg width="56" height="56" viewBox="0 0 56 56" fill="none" xmlns="http://www.w3.org/2000/svg">
<g clip-path="url(#clip0_11_36)">
<mask id="path-1-inside-1_11_36" fill="white">
<path fill-rule="evenodd" clip-rule="evenodd" d="M5.66196 8.3241C11.8304 2.15565 21.8314 2.15564 27.9999 8.32407C27.9999 8.32409 28 8.32409 28 8.32407V8.32407C28 8.32405 28 8.32405 28 8.32407L28.0001 8.3241C28.0001 8.32413 28.0002 8.32413 28.0002 8.3241V8.3241C34.1686 2.15564 44.1697 2.15564 50.3382 8.3241C56.5066 14.4926 56.5066 24.4936 50.3382 30.6621C50.3203 30.68 50.3024 30.6978 50.2844 30.7156L32.2426 48.7574C29.8995 51.1005 26.1005 51.1005 23.7574 48.7574L5.69995 30.6999L5.66196 30.6621C-0.506505 24.4936 -0.506503 14.4926 5.66196 8.3241Z"/>
</mask>
<path d="M50.2844 30.7156L49.5806 30.0052L49.5773 30.0085L50.2844 30.7156ZM32.2426 48.7574L32.9497 49.4645L32.2426 48.7574ZM23.7574 48.7574L23.0503 49.4645L23.7574 48.7574ZM5.69995 30.6999L6.40706 29.9928L6.40588 29.9917L5.69995 30.6999ZM5.66196 30.6621L4.95485 31.3692L4.95603 31.3704L5.66196 30.6621ZM28.0001 8.3241L27.293 9.03121L28.0001 8.3241ZM28 8.32407L27.2929 9.03117L28 8.32407ZM27.9999 8.32407L27.2928 9.03118L27.9999 8.32407ZM28.707 7.61696C22.148 1.05801 11.5138 1.05802 4.95485 7.617L6.36907 9.03121C12.147 3.25328 21.5149 3.25327 27.2928 9.03118L28.707 7.61696ZM28.7072 7.617L28.7071 7.61696L27.2929 9.03117L27.293 9.03121L28.7072 7.617ZM28.7073 9.03121C34.4852 3.25327 43.8531 3.25327 49.6311 9.03121L51.0453 7.617C44.4863 1.05801 33.8521 1.05801 27.2931 7.617L28.7073 9.03121ZM49.6311 9.03121C55.409 14.8091 55.409 24.177 49.6311 29.955L51.0453 31.3692C57.6043 24.8102 57.6043 14.176 51.0453 7.617L49.6311 9.03121ZM49.6311 29.955C49.6143 29.9718 49.5975 29.9885 49.5806 30.0052L50.9882 31.426C51.0072 31.4071 51.0263 31.3882 51.0453 31.3692L49.6311 29.955ZM32.9497 49.4645L50.9915 31.4227L49.5773 30.0085L31.5355 48.0503L32.9497 49.4645ZM23.0503 49.4645C25.7839 52.1981 30.2161 52.1981 32.9497 49.4645L31.5355 48.0503C29.5829 50.0029 26.4171 50.0029 24.4645 48.0503L23.0503 49.4645ZM4.99284 31.4071L23.0503 49.4645L24.4645 48.0503L6.40705 29.9928L4.99284 31.4071ZM4.95603 31.3704L4.99402 31.4082L6.40588 29.9917L6.36789 29.9538L4.95603 31.3704ZM4.95485 7.617C-1.60413 14.176 -1.60414 24.8102 4.95485 31.3692L6.36907 29.955C0.591126 24.177 0.591128 14.8091 6.36907 9.03121L4.95485 7.617ZM27.293 9.03121C27.6835 9.42176 28.3167 9.42176 28.7073 9.03121L27.2931 7.617C27.6836 7.2265 28.3167 7.2265 28.7072 7.617L27.293 9.03121ZM28.7645 8.96867C28.3869 9.41646 27.7071 9.44534 27.2929 9.03117L28.7071 7.61696C28.2929 7.20276 27.613 7.23164 27.2354 7.67947L28.7645 8.96867ZM27.2928 9.03118C27.701 9.43933 28.3814 9.423 28.7645 8.96867L27.2354 7.67947C27.6185 7.22517 28.2989 7.20885 28.707 7.61696L27.2928 9.03118Z" fill="black" mask="url(#path-1-inside-1_11_36)"/>
</g>
<defs>
<clipPath id="clip0_11_36">
<rect width="56" height="56" fill="white"/>
</clipPath>
</defs>
</svg>
