<svg width="32" height="32" viewBox="0 0 32 32" fill="none" xmlns="http://www.w3.org/2000/svg">
<path d="M10 16C10 12.6863 12.6863 10 16 10C19.3137 10 22 12.6863 22 16C22 19.3137 19.3137 22 16 22C12.6863 22 10 19.3137 10 16Z" stroke="white" stroke-width="2"/>
<path d="M16 1L16 6" stroke="white" stroke-width="2" stroke-linecap="round"/>
<path d="M31 16L26 16" stroke="white" stroke-width="2" stroke-linecap="round"/>
<path d="M16 26L16 31" stroke="white" stroke-width="2" stroke-linecap="round"/>
<path d="M6 16L1 16" stroke="white" stroke-width="2" stroke-linecap="round"/>
<path d="M5.39337 5.3934L8.92891 8.92894" stroke="white" stroke-width="2" stroke-linecap="round"/>
<path d="M26.6066 5.3934L23.0711 8.92894" stroke="white" stroke-width="2" stroke-linecap="round"/>
<path d="M23.071 23.0711L26.6066 26.6066" stroke="white" stroke-width="2" stroke-linecap="round"/>
<path d="M8.92896 23.0711L5.39342 26.6066" stroke="white" stroke-width="2" stroke-linecap="round"/>
</svg>
