<svg width="50" height="50" viewBox="0 0 50 50" fill="none" xmlns="http://www.w3.org/2000/svg">
<g clip-path="url(#clip0_8_531)">
<rect x="1" y="1" width="48" height="48" rx="24" stroke="black" stroke-width="2"/>
<path d="M18.7 10H31.3C36.1 10 40 13.9 40 18.7V31.3C40 33.6074 39.0834 35.8203 37.4518 37.4518C35.8203 39.0834 33.6074 40 31.3 40H18.7C13.9 40 10 36.1 10 31.3V18.7C10 16.3926 10.9166 14.1797 12.5482 12.5482C14.1797 10.9166 16.3926 10 18.7 10ZM18.4 13C16.9678 13 15.5943 13.5689 14.5816 14.5816C13.5689 15.5943 13 16.9678 13 18.4V31.6C13 34.585 15.415 37 18.4 37H31.6C33.0322 37 34.4057 36.4311 35.4184 35.4184C36.4311 34.4057 37 33.0322 37 31.6V18.4C37 15.415 34.585 13 31.6 13H18.4ZM32.875 15.25C33.3723 15.25 33.8492 15.4475 34.2008 15.7992C34.5525 16.1508 34.75 16.6277 34.75 17.125C34.75 17.6223 34.5525 18.0992 34.2008 18.4508C33.8492 18.8025 33.3723 19 32.875 19C32.3777 19 31.9008 18.8025 31.5492 18.4508C31.1975 18.0992 31 17.6223 31 17.125C31 16.6277 31.1975 16.1508 31.5492 15.7992C31.9008 15.4475 32.3777 15.25 32.875 15.25ZM25 17.5C26.9891 17.5 28.8968 18.2902 30.3033 19.6967C31.7098 21.1032 32.5 23.0109 32.5 25C32.5 26.9891 31.7098 28.8968 30.3033 30.3033C28.8968 31.7098 26.9891 32.5 25 32.5C23.0109 32.5 21.1032 31.7098 19.6967 30.3033C18.2902 28.8968 17.5 26.9891 17.5 25C17.5 23.0109 18.2902 21.1032 19.6967 19.6967C21.1032 18.2902 23.0109 17.5 25 17.5ZM25 20.5C23.8065 20.5 22.6619 20.9741 21.818 21.818C20.9741 22.6619 20.5 23.8065 20.5 25C20.5 26.1935 20.9741 27.3381 21.818 28.182C22.6619 29.0259 23.8065 29.5 25 29.5C26.1935 29.5 27.3381 29.0259 28.182 28.182C29.0259 27.3381 29.5 26.1935 29.5 25C29.5 23.8065 29.0259 22.6619 28.182 21.818C27.3381 20.9741 26.1935 20.5 25 20.5Z" fill="black"/>
</g>
<defs>
<clipPath id="clip0_8_531">
<rect width="50" height="50" fill="white"/>
</clipPath>
</defs>
</svg>
