<svg width="203" height="45" viewBox="0 0 203 45" fill="none" xmlns="http://www.w3.org/2000/svg">
<g clip-path="url(#clip0_3_16)">
<path d="M182.83 44.2105V16.5726H193.656V24.9095L191.894 22.5348C192.733 20.379 194.076 18.7621 195.923 17.6842C197.769 16.6063 199.985 16.0674 202.57 16.0674V26.1726C202.066 26.1053 201.613 26.0548 201.21 26.0211C200.841 25.9874 200.455 25.9705 200.052 25.9705C198.34 25.9705 196.93 26.4253 195.822 27.3348C194.748 28.2105 194.21 29.7432 194.21 31.9326V44.2105H182.83Z" fill="black"/>
<path d="M166.146 44.7158C162.789 44.7158 159.851 44.0926 157.333 42.8463C154.849 41.6 152.919 39.899 151.542 37.7432C150.166 35.5537 149.478 33.0948 149.478 30.3663C149.478 27.5705 150.149 25.0948 151.492 22.939C152.868 20.7832 154.732 19.099 157.081 17.8863C159.465 16.6737 162.134 16.0674 165.088 16.0674C167.807 16.0674 170.308 16.6063 172.591 17.6842C174.908 18.7621 176.754 20.3621 178.131 22.4842C179.541 24.6063 180.246 27.2337 180.246 30.3663C180.246 30.7705 180.229 31.2253 180.195 31.7305C180.162 32.2021 180.128 32.64 180.094 33.0442H158.894V27.5369H174.052L169.771 29.0021C169.771 27.9242 169.57 27.0148 169.167 26.2737C168.798 25.499 168.277 24.9095 167.606 24.5053C166.935 24.0674 166.129 23.8484 165.189 23.8484C164.249 23.8484 163.426 24.0674 162.721 24.5053C162.05 24.9095 161.53 25.499 161.16 26.2737C160.791 27.0148 160.606 27.9242 160.606 29.0021V30.72C160.606 31.899 160.841 32.9095 161.311 33.7516C161.781 34.5937 162.453 35.2337 163.326 35.6716C164.199 36.0758 165.256 36.2779 166.498 36.2779C167.774 36.2779 168.815 36.1095 169.62 35.7726C170.46 35.4358 171.332 34.9305 172.239 34.2569L178.181 40.2695C176.838 41.7179 175.176 42.8295 173.196 43.6042C171.248 44.3453 168.898 44.7158 166.146 44.7158Z" fill="black"/>
<path d="M135.231 16.0674C137.346 16.0674 139.26 16.5053 140.972 17.3811C142.684 18.2232 144.027 19.5537 145 21.3726C146.007 23.1916 146.511 25.5495 146.511 28.4463V44.2105H135.13V30.4169C135.13 28.699 134.828 27.4863 134.224 26.779C133.62 26.0379 132.797 25.6674 131.756 25.6674C130.984 25.6674 130.263 25.8526 129.591 26.2232C128.953 26.56 128.433 27.1326 128.03 27.9411C127.661 28.7495 127.476 29.8442 127.476 31.2253V44.2105H116.096V16.5726H126.922V24.6569L124.757 22.3326C125.831 20.2442 127.275 18.6779 129.088 17.6337C130.934 16.5895 132.982 16.0674 135.231 16.0674Z" fill="black"/>
<path d="M100.678 44.2105V16.5726H112.058V44.2105H100.678Z" fill="black"/>
<path d="M85.26 44.2105V6.72002H96.6406V44.2105H85.26Z" fill="black"/>
<path d="M66.0852 44.2105V17.9369C66.0852 14.3663 67.1427 11.52 69.2576 9.39791C71.4062 7.27581 74.4444 6.21475 78.3722 6.21475C79.5807 6.21475 80.7893 6.33265 81.9979 6.56843C83.24 6.77054 84.2807 7.10738 85.12 7.57896L82.4007 15.5116C82.0314 15.3432 81.6286 15.1916 81.1921 15.0569C80.7557 14.9221 80.3025 14.8548 79.8325 14.8548C79.0268 14.8548 78.3722 15.1074 77.8686 15.6126C77.365 16.1179 77.1133 16.9263 77.1133 18.0379V19.3516L77.4658 24.0505V44.2105H66.0852ZM62.3084 26.4253V18.0884H83.1057V26.4253H62.3084Z" fill="#025ADD"/>
<path d="M44.6679 44.2105V17.9369C44.6679 14.3663 45.7254 11.52 47.8404 9.39791C49.9889 7.27581 53.0271 6.21475 56.9549 6.21475C58.1635 6.21475 59.372 6.33265 60.5806 6.56843C61.8227 6.77054 62.8634 7.10738 63.7027 7.57896L60.9834 15.5116C60.6141 15.3432 60.2113 15.1916 59.7749 15.0569C59.3384 14.9221 58.8852 14.8548 58.4152 14.8548C57.6095 14.8548 56.9549 15.1074 56.4513 15.6126C55.9478 16.1179 55.696 16.9263 55.696 18.0379V19.3516L56.0485 24.0505V44.2105H44.6679ZM40.8911 26.4253V18.0884H61.6884V26.4253H40.8911Z" fill="#025ADD"/>
<path d="M20.6147 45.019C17.7276 45.019 15.0587 44.5642 12.608 43.6548C10.1909 42.7453 8.09273 41.4653 6.31346 39.8148C4.53419 38.1306 3.141 36.16 2.13386 33.9032C1.1603 31.6463 0.673523 29.1874 0.673523 26.5263C0.673523 23.8316 1.1603 21.3727 2.13386 19.1495C3.141 16.8927 4.53419 14.939 6.31346 13.2884C8.09273 11.6042 10.1909 10.3074 12.608 9.39792C15.0587 8.48844 17.7108 8.03371 20.5644 8.03371C23.4515 8.03371 26.1036 8.48844 28.5207 9.39792C30.9378 10.3074 33.036 11.6042 34.8153 13.2884C36.5946 14.939 37.971 16.8927 38.9445 19.1495C39.9517 21.3727 40.4552 23.8316 40.4552 26.5263C40.4552 29.1874 39.9517 31.6463 38.9445 33.9032C37.971 36.16 36.5946 38.1306 34.8153 39.8148C33.036 41.4653 30.9378 42.7453 28.5207 43.6548C26.1036 44.5642 23.4683 45.019 20.6147 45.019ZM20.5644 35.3684C21.6722 35.3684 22.6961 35.1663 23.6361 34.7621C24.6097 34.3579 25.449 33.7853 26.154 33.0442C26.8925 32.2695 27.4632 31.3432 27.8661 30.2653C28.2689 29.1537 28.4704 27.9074 28.4704 26.5263C28.4704 25.1453 28.2689 23.9158 27.8661 22.8379C27.4632 21.7263 26.8925 20.8 26.154 20.059C25.449 19.2842 24.6097 18.6948 23.6361 18.2905C22.6961 17.8863 21.6722 17.6842 20.5644 17.6842C19.4565 17.6842 18.4158 17.8863 17.4423 18.2905C16.5023 18.6948 15.663 19.2842 14.9244 20.059C14.2194 20.8 13.6655 21.7263 13.2627 22.8379C12.8598 23.9158 12.6584 25.1453 12.6584 26.5263C12.6584 27.9074 12.8598 29.1537 13.2627 30.2653C13.6655 31.3432 14.2194 32.2695 14.9244 33.0442C15.663 33.7853 16.5023 34.3579 17.4423 34.7621C18.4158 35.1663 19.4565 35.3684 20.5644 35.3684Z" fill="#025ADD"/>
<path d="M106.221 0.789474L109.376 4.7295L113.302 7.89474L109.376 11.06L106.221 15L103.066 11.06L99.1395 7.89474L103.066 4.7295L106.221 0.789474Z" fill="#025ADD"/>
</g>
<defs>
<clipPath id="clip0_3_16">
<rect width="203" height="45" fill="white"/>
</clipPath>
</defs>
</svg>
