<svg width="33" height="32" viewBox="0 0 33 32" fill="none" xmlns="http://www.w3.org/2000/svg">
<circle cx="16.4378" cy="8.89756" r="7.89756" stroke="#025ADD" stroke-width="2"/>
<mask id="path-2-inside-1_11_28" fill="white">
<path fill-rule="evenodd" clip-rule="evenodd" d="M29.2187 24.9596C30.8486 26.6407 30.7935 29.4135 28.8348 30.6967C27.5769 31.5208 26.0727 32 24.4565 32H8.45652C6.8404 32 5.3362 31.5208 4.07827 30.6967C2.11954 29.4135 2.0644 26.6407 3.6944 24.9596C6.61576 21.9465 11.2452 20 16.4565 20C21.6679 20 26.2973 21.9465 29.2187 24.9596Z"/>
</mask>
<path d="M28.8348 30.6967L27.7388 29.0237L28.8348 30.6967ZM27.7388 29.0237C26.7966 29.641 25.6715 30 24.4565 30V34C26.4738 34 28.3571 33.4006 29.9308 32.3696L27.7388 29.0237ZM24.4565 30H8.45652V34H24.4565V30ZM8.45652 30C7.24151 30 6.11644 29.641 5.17427 29.0237L2.98228 32.3696C4.55595 33.4006 6.43928 34 8.45652 34V30ZM5.1303 26.3517C7.63095 23.7726 11.7197 22 16.4565 22V18C10.7707 18 5.60056 20.1204 2.25849 23.5674L5.1303 26.3517ZM16.4565 22C21.1934 22 25.2821 23.7726 27.7827 26.3517L30.6546 23.5674C27.3125 20.1204 22.1423 18 16.4565 18V22ZM5.17427 29.0237C4.46735 28.5606 4.19888 27.3124 5.1303 26.3517L2.25849 23.5674C-0.0700717 25.9691 -0.228265 30.2663 2.98228 32.3696L5.17427 29.0237ZM29.9308 32.3696C33.1413 30.2663 32.9831 25.9691 30.6546 23.5674L27.7827 26.3517C28.7142 27.3124 28.4457 28.5606 27.7388 29.0237L29.9308 32.3696Z" fill="#025ADD" mask="url(#path-2-inside-1_11_28)"/>
</svg>
