<svg width="28" height="31" viewBox="0 0 28 31" fill="none" xmlns="http://www.w3.org/2000/svg">
<mask id="path-1-inside-1_296_30" fill="white">
<path fill-rule="evenodd" clip-rule="evenodd" d="M27.4219 26.2045C28.7111 24.8904 27.1491 22.9569 25.3086 22.9967C25.206 22.9989 25.1031 23 25 23C17.268 23 11 16.732 11 9C11 6.97625 11.4294 5.05279 12.2021 3.31576C12.9494 1.63576 11.7741 -0.545953 10.0666 0.136253C4.16768 2.49312 0 8.25985 0 15C0 23.8366 7.16344 31 16 31C20.4736 31 24.5183 29.164 27.4219 26.2045Z"/>
</mask>
<path d="M12.2021 3.31576L10.3747 2.50291L12.2021 3.31576ZM25.3086 22.9967L25.2654 20.9971L25.3086 22.9967ZM25.2654 20.9971C25.1772 20.999 25.0887 21 25 21V25C25.1176 25 25.2348 24.9987 25.3519 24.9962L25.2654 20.9971ZM25 21C18.3726 21 13 15.6274 13 9H9C9 17.8366 16.1634 25 25 25V21ZM13 9C13 7.26167 13.3684 5.61472 14.0294 4.1286L10.3747 2.50291C9.49042 4.49086 9 6.69083 9 9H13ZM2 15C2 9.10552 5.6435 4.05719 10.8086 1.9935L9.32455 -1.72099C2.69186 0.929043 -2 7.41418 -2 15H2ZM16 29C8.26801 29 2 22.732 2 15H-2C-2 24.9411 6.05887 33 16 33V29ZM25.9943 24.8038C23.4513 27.3958 19.9148 29 16 29V33C21.0324 33 25.5854 30.9323 28.8496 27.6051L25.9943 24.8038ZM14.0294 4.1286C14.6795 2.66724 14.5074 1.00527 13.7565 -0.210675C13.3703 -0.83615 12.7779 -1.42562 11.9656 -1.74909C11.1208 -2.08554 10.1958 -2.06911 9.32455 -1.72099L10.8086 1.9935C10.8124 1.99201 10.7748 2.00709 10.7035 2.00795C10.6311 2.00883 10.5548 1.99458 10.4857 1.96708C10.3507 1.91331 10.3256 1.84635 10.3532 1.89103C10.3799 1.93435 10.4194 2.02943 10.4292 2.16162C10.4386 2.28888 10.4172 2.40732 10.3747 2.50291L14.0294 4.1286ZM25.3519 24.9962C25.4563 24.9939 25.5741 25.02 25.6886 25.0784C25.8075 25.1389 25.8812 25.213 25.9119 25.256C25.9435 25.3003 25.8923 25.2533 25.8947 25.1099C25.8959 25.0365 25.9119 24.9613 25.9405 24.8951C25.9687 24.8299 25.997 24.8011 25.9943 24.8038L28.8496 27.6051C29.5077 26.9343 29.879 26.0861 29.8941 25.1766C29.9087 24.3024 29.5936 23.5281 29.1659 22.9298C28.3344 21.7666 26.8671 20.9625 25.2654 20.9971L25.3519 24.9962Z" fill="black" mask="url(#path-1-inside-1_296_30)"/>
</svg>
