<svg width="287" height="287" viewBox="0 0 287 287" fill="none" xmlns="http://www.w3.org/2000/svg">
<circle cx="111.441" cy="111.441" r="16.7926" fill="#025ADD"/>
<circle cx="47.3245" cy="47.3245" r="16.7926" fill="#025ADD"/>
<ellipse cx="111.441" cy="79.383" rx="16.7926" ry="15.266" fill="#025ADD"/>
<ellipse cx="79.383" cy="111.441" rx="15.266" ry="16.7926" fill="#025ADD"/>
<ellipse cx="111.441" cy="143.5" rx="16.7926" ry="15.266" fill="#025ADD"/>
<circle cx="79.383" cy="143.5" r="15.266" fill="#025ADD"/>
<circle cx="15.266" cy="143.5" r="15.266" fill="#025ADD"/>
<circle cx="111.441" cy="175.558" r="16.7926" fill="#025ADD"/>
<circle cx="47.3245" cy="239.676" r="16.7926" fill="#025ADD"/>
<ellipse cx="79.383" cy="175.558" rx="15.266" ry="16.7926" fill="#025ADD"/>
<ellipse cx="111.441" cy="207.617" rx="16.7926" ry="15.266" fill="#025ADD"/>
<ellipse cx="143.5" cy="111.441" rx="15.266" ry="16.7926" fill="#025ADD"/>
<circle cx="143.5" cy="79.383" r="15.266" fill="#025ADD"/>
<circle cx="143.5" cy="271.734" r="15.266" fill="#025ADD"/>
<circle cx="143.5" cy="15.266" r="15.266" fill="#025ADD"/>
<circle cx="143.5" cy="143.5" r="15.266" fill="#025ADD"/>
<ellipse cx="143.5" cy="175.558" rx="15.266" ry="16.7926" fill="#025ADD"/>
<circle cx="143.5" cy="207.617" r="15.266" fill="#025ADD"/>
<circle cx="175.558" cy="111.441" r="16.7926" fill="#025ADD"/>
<circle cx="239.676" cy="47.3245" r="16.7926" fill="#025ADD"/>
<ellipse cx="175.558" cy="79.383" rx="16.7926" ry="15.266" fill="#025ADD"/>
<ellipse cx="207.617" cy="111.441" rx="15.266" ry="16.7926" fill="#025ADD"/>
<ellipse cx="175.558" cy="143.5" rx="16.7926" ry="15.266" fill="#025ADD"/>
<circle cx="207.617" cy="143.5" r="15.266" fill="#025ADD"/>
<circle cx="271.734" cy="143.5" r="15.266" fill="#025ADD"/>
<circle cx="175.558" cy="175.558" r="16.7926" fill="#025ADD"/>
<circle cx="239.676" cy="239.676" r="16.7926" fill="#025ADD"/>
<ellipse cx="175.558" cy="207.617" rx="16.7926" ry="15.266" fill="#025ADD"/>
<ellipse cx="207.617" cy="175.558" rx="15.266" ry="16.7926" fill="#025ADD"/>
</svg>
