<svg width="33" height="32" viewBox="0 0 33 32" fill="none" xmlns="http://www.w3.org/2000/svg">
<g clip-path="url(#clip0_11_14)">
<mask id="path-1-inside-1_11_14" fill="white">
<path fill-rule="evenodd" clip-rule="evenodd" d="M20.3134 27.6636C17.9703 30.0068 14.1713 30.0068 11.8282 27.6636L2.8729 18.7083C-0.77161 15.0638 -0.771609 9.15494 2.87289 5.51044C6.2789 2.10443 11.6626 1.88154 15.3275 4.84176C15.7571 5.1888 16.3845 5.1888 16.8141 4.84176C20.479 1.88154 25.8627 2.10443 29.2687 5.51044C32.9132 9.15494 32.9132 15.0638 29.2687 18.7083L20.3134 27.6636Z"/>
</mask>
<path d="M15.3275 4.84176L14.0708 6.39762L15.3275 4.84176ZM16.8141 4.84176L15.5574 3.28591L16.8141 4.84176ZM10.4139 29.0778C13.5381 32.202 18.6035 32.202 21.7277 29.0778L18.8992 26.2494C17.3371 27.8115 14.8045 27.8115 13.2424 26.2494L10.4139 29.0778ZM1.45868 20.1226L10.4139 29.0778L13.2424 26.2494L4.28711 17.2941L1.45868 20.1226ZM1.45868 4.09622C-2.96687 8.52177 -2.96687 15.697 1.45868 20.1226L4.28711 17.2941C1.42365 14.4307 1.42365 9.7881 4.28711 6.92465L1.45868 4.09622ZM16.5842 3.28591C12.1323 -0.310059 5.59553 -0.0406304 1.45868 4.09622L4.28711 6.92465C6.96226 4.2495 11.193 4.07314 14.0708 6.39762L16.5842 3.28591ZM18.0708 6.39762C20.9486 4.07314 25.1793 4.2495 27.8545 6.92465L30.6829 4.09622C26.5461 -0.0406311 20.0093 -0.310057 15.5574 3.28591L18.0708 6.39762ZM27.8545 6.92465C30.7179 9.7881 30.7179 14.4307 27.8545 17.2941L30.6829 20.1226C35.1085 15.697 35.1085 8.52177 30.6829 4.09622L27.8545 6.92465ZM21.7277 29.0778L30.6829 20.1226L27.8545 17.2941L18.8992 26.2494L21.7277 29.0778ZM14.0708 6.39762C15.2336 7.33684 16.908 7.33684 18.0708 6.39762L15.5574 3.28591C15.8609 3.04075 16.2807 3.04075 16.5842 3.28591L14.0708 6.39762Z" fill="black" mask="url(#path-1-inside-1_11_14)"/>
</g>
<defs>
<clipPath id="clip0_11_14">
<rect width="32" height="32" fill="white" transform="translate(0.195801)"/>
</clipPath>
</defs>
</svg>
