<svg width="50" height="50" viewBox="0 0 50 50" fill="none" xmlns="http://www.w3.org/2000/svg">
<g clip-path="url(#clip0_8_536)">
<rect x="1" y="1" width="48" height="48" rx="24" stroke="black" stroke-width="2"/>
<path d="M22.8 29.5714L29.8065 25.5L22.8 21.4286V29.5714ZM38.406 18.945C38.5815 19.5829 38.703 20.4379 38.784 21.5236C38.8785 22.6093 38.919 23.5457 38.919 24.36L39 25.5C39 28.4721 38.784 30.6571 38.406 32.055C38.0685 33.2764 37.2855 34.0636 36.0705 34.4029C35.436 34.5793 34.275 34.7014 32.493 34.7829C30.738 34.8779 29.1315 34.9186 27.6465 34.9186L25.5 35C19.8435 35 16.32 34.7829 14.9295 34.4029C13.7145 34.0636 12.9315 33.2764 12.594 32.055C12.4185 31.4171 12.297 30.5621 12.216 29.4764C12.1215 28.3907 12.081 27.4543 12.081 26.64L12 25.5C12 22.5279 12.216 20.3429 12.594 18.945C12.9315 17.7236 13.7145 16.9364 14.9295 16.5971C15.564 16.4207 16.725 16.2986 18.507 16.2171C20.262 16.1221 21.8685 16.0814 23.3535 16.0814L25.5 16C31.1565 16 34.68 16.2171 36.0705 16.5971C37.2855 16.9364 38.0685 17.7236 38.406 18.945Z" fill="black"/>
</g>
<defs>
<clipPath id="clip0_8_536">
<rect width="50" height="50" fill="white"/>
</clipPath>
</defs>
</svg>
