<svg width="297" height="297" viewBox="0 0 297 297" fill="none" xmlns="http://www.w3.org/2000/svg">
<circle cx="82.5" cy="82.5" r="16.5" transform="rotate(-180 82.5 82.5)" fill="#025ADD"/>
<circle cx="214.5" cy="82.5" r="16.5" transform="rotate(-90 214.5 82.5)" fill="#025ADD"/>
<circle cx="214.5" cy="214.5" r="16.5" fill="#025ADD"/>
<circle cx="82.5" cy="214.5" r="16.5" transform="rotate(90 82.5 214.5)" fill="#025ADD"/>
<circle cx="82.5" cy="49.5" r="16.5" transform="rotate(-180 82.5 49.5)" fill="#025ADD"/>
<circle cx="247.5" cy="82.5" r="16.5" transform="rotate(-90 247.5 82.5)" fill="#025ADD"/>
<circle cx="214.5" cy="247.5" r="16.5" fill="#025ADD"/>
<circle cx="49.5" cy="214.5" r="16.5" transform="rotate(90 49.5 214.5)" fill="#025ADD"/>
<circle cx="148.5" cy="49.5" r="16.5" transform="rotate(-180 148.5 49.5)" fill="#025ADD"/>
<circle cx="247.5" cy="148.5" r="16.5" transform="rotate(-90 247.5 148.5)" fill="#025ADD"/>
<circle cx="148.5" cy="247.5" r="16.5" fill="#025ADD"/>
<circle cx="49.5" cy="148.5" r="16.5" transform="rotate(90 49.5 148.5)" fill="#025ADD"/>
<circle cx="148.5" cy="16.5" r="16.5" transform="rotate(-180 148.5 16.5)" fill="#025ADD"/>
<circle cx="280.5" cy="148.5" r="16.5" transform="rotate(-90 280.5 148.5)" fill="#025ADD"/>
<circle cx="148.5" cy="280.5" r="16.5" fill="#025ADD"/>
<circle cx="16.5" cy="148.5" r="16.5" transform="rotate(90 16.5 148.5)" fill="#025ADD"/>
<circle cx="148.5" cy="82.5" r="16.5" transform="rotate(-180 148.5 82.5)" fill="#025ADD"/>
<circle cx="214.5" cy="148.5" r="16.5" transform="rotate(-90 214.5 148.5)" fill="#025ADD"/>
<circle cx="148.5" cy="148.5" r="16.5" transform="rotate(-90 148.5 148.5)" fill="#025ADD"/>
<circle cx="148.5" cy="214.5" r="16.5" fill="#025ADD"/>
<circle cx="82.5" cy="148.5" r="16.5" transform="rotate(90 82.5 148.5)" fill="#025ADD"/>
<circle cx="115.5" cy="115.5" r="16.5" transform="rotate(-180 115.5 115.5)" fill="#025ADD"/>
<circle cx="181.5" cy="115.5" r="16.5" transform="rotate(-90 181.5 115.5)" fill="#025ADD"/>
<circle cx="181.5" cy="181.5" r="16.5" fill="#025ADD"/>
<circle cx="115.5" cy="181.5" r="16.5" transform="rotate(90 115.5 181.5)" fill="#025ADD"/>
<circle cx="49.5" cy="82.5" r="16.5" transform="rotate(-180 49.5 82.5)" fill="#025ADD"/>
<circle cx="214.5" cy="49.5" r="16.5" transform="rotate(-90 214.5 49.5)" fill="#025ADD"/>
<circle cx="247.5" cy="214.5" r="16.5" fill="#025ADD"/>
<circle cx="82.5" cy="247.5" r="16.5" transform="rotate(90 82.5 247.5)" fill="#025ADD"/>
</svg>
