<svg width="231" height="297" viewBox="0 0 231 297" fill="none" xmlns="http://www.w3.org/2000/svg">
<circle cx="16.5" cy="148.5" r="16.5" fill="#025ADD"/>
<circle cx="214.5" cy="148.5" r="16.5" transform="rotate(-180 214.5 148.5)" fill="#025ADD"/>
<circle cx="49.5" cy="115.5" r="16.5" fill="#025ADD"/>
<circle cx="181.5" cy="181.5" r="16.5" transform="rotate(-180 181.5 181.5)" fill="#025ADD"/>
<circle cx="49.5" cy="148.5" r="16.5" fill="#025ADD"/>
<circle cx="181.5" cy="148.5" r="16.5" transform="rotate(-180 181.5 148.5)" fill="#025ADD"/>
<circle cx="82.5" cy="148.5" r="16.5" fill="#025ADD"/>
<circle cx="115.5" cy="148.5" r="16.5" fill="#025ADD"/>
<circle cx="148.5" cy="148.5" r="16.5" fill="#025ADD"/>
<circle cx="82.5" cy="115.5" r="16.5" fill="#025ADD"/>
<circle cx="148.5" cy="181.5" r="16.5" transform="rotate(-180 148.5 181.5)" fill="#025ADD"/>
<circle cx="115.5" cy="115.5" r="16.5" fill="#025ADD"/>
<circle cx="115.5" cy="181.5" r="16.5" transform="rotate(-180 115.5 181.5)" fill="#025ADD"/>
<circle cx="148.5" cy="115.5" r="16.5" fill="#025ADD"/>
<circle cx="82.5" cy="181.5" r="16.5" transform="rotate(-180 82.5 181.5)" fill="#025ADD"/>
<circle cx="82.5" cy="82.5" r="16.5" fill="#025ADD"/>
<circle cx="148.5" cy="214.5" r="16.5" transform="rotate(-180 148.5 214.5)" fill="#025ADD"/>
<circle cx="115.5" cy="82.5" r="16.5" fill="#025ADD"/>
<circle cx="115.5" cy="214.5" r="16.5" transform="rotate(-180 115.5 214.5)" fill="#025ADD"/>
<circle cx="148.5" cy="82.5" r="16.5" fill="#025ADD"/>
<circle cx="82.5" cy="214.5" r="16.5" transform="rotate(-180 82.5 214.5)" fill="#025ADD"/>
<circle cx="115.5" cy="49.5" r="16.5" fill="#025ADD"/>
<circle cx="115.5" cy="247.5" r="16.5" transform="rotate(-180 115.5 247.5)" fill="#025ADD"/>
<circle cx="148.5" cy="49.5" r="16.5" fill="#025ADD"/>
<circle cx="82.5" cy="247.5" r="16.5" transform="rotate(-180 82.5 247.5)" fill="#025ADD"/>
<circle cx="148.5" cy="16.5" r="16.5" fill="#025ADD"/>
<circle cx="82.5" cy="280.5" r="16.5" transform="rotate(-180 82.5 280.5)" fill="#025ADD"/>
</svg>
